HIERARCHY
ROOT Hips
{
 OFFSET 0.000000 0.000000 0.000000
 CHANNELS 6 Xposition Yposition Zposition Yrotation Xrotation Zrotation
 JOINT Chest
 {
  OFFSET 0.000000 9.585900 0.002600
  CHANNELS 3 Yrotation Xrotation Zrotation
  JOINT Chest2
  {
   OFFSET 0.000000 9.601200 -0.005300
   CHANNELS 3 Yrotation Xrotation Zrotation
   JOINT Chest3
   {
    OFFSET 0.000000 9.561800 0.000000
    CHANNELS 3 Yrotation Xrotation Zrotation
    JOINT Chest4
    {
     OFFSET 0.000000 9.552100 0.000000
     CHANNELS 3 Yrotation Xrotation Zrotation
     JOINT Neck
     {
      OFFSET 0.000000 14.453000 0.000000
      CHANNELS 3 Yrotation Xrotation Zrotation
      JOINT Head
      {
       OFFSET 0.000000 8.936500 -0.011300
       CHANNELS 3 Yrotation Xrotation Zrotation
       End Site
       {
        OFFSET 0.000000 17.073600 -0.006000
       }
      }
     }
     JOINT RightCollar
     {
      OFFSET -2.921100 9.558500 0.000000
      CHANNELS 3 Yrotation Xrotation Zrotation
      JOINT RightShoulder
      {
       OFFSET -13.519700 0.000000 0.000000
       CHANNELS 3 Yrotation Xrotation Zrotation
       JOINT RightElbow
       {
        OFFSET 0.000000 -29.696600 0.000000
        CHANNELS 3 Yrotation Xrotation Zrotation
        JOINT RightWrist
        {
         OFFSET 0.000000 -24.004700 0.000000
         CHANNELS 3 Yrotation Xrotation Zrotation
         End Site
         {
          OFFSET 0.000000 -17.728500 0.000000
         }
        }
       }
      }
     }
     JOINT LeftCollar
     {
      OFFSET 2.921100 9.558500 0.000000
      CHANNELS 3 Yrotation Xrotation Zrotation
      JOINT LeftShoulder
      {
       OFFSET 13.519700 0.000000 0.000000
       CHANNELS 3 Yrotation Xrotation Zrotation
       JOINT LeftElbow
       {
        OFFSET 0.000000 -29.696600 0.000000
        CHANNELS 3 Yrotation Xrotation Zrotation
        JOINT LeftWrist
        {
         OFFSET 0.000000 -24.004700 0.000000
         CHANNELS 3 Yrotation Xrotation Zrotation
         End Site
         {
          OFFSET 0.000000 -17.728500 0.000000
         }
        }
       }
      }
     }
    }
   }
  }
 }
 JOINT RightHip
 {
  OFFSET -7.771700 -0.012900 -0.001300
  CHANNELS 3 Yrotation Xrotation Zrotation
  JOINT RightKnee
  {
   OFFSET 0.000000 -40.869800 0.001200
   CHANNELS 3 Yrotation Xrotation Zrotation
   JOINT RightAnkle
   {
    OFFSET 0.000000 -39.717900 0.002100
    CHANNELS 3 Yrotation Xrotation Zrotation
    JOINT RightToe
    {
     OFFSET 0.000000 -4.965400 11.033500
     CHANNELS 3 Yrotation Xrotation Zrotation
     End Site
     {
      OFFSET 0.000000 -1.423100 5.872300
     }
    }
   }
  }
 }
 JOINT LeftHip
 {
  OFFSET 7.771700 -0.012900 -0.001300
  CHANNELS 3 Yrotation Xrotation Zrotation
  JOINT LeftKnee
  {
   OFFSET 0.000000 -40.869800 0.001200
   CHANNELS 3 Yrotation Xrotation Zrotation
   JOINT LeftAnkle
   {
    OFFSET 0.000000 -39.717900 0.002100
    CHANNELS 3 Yrotation Xrotation Zrotation
    JOINT LeftToe
    {
     OFFSET 0.000000 -4.965400 11.033500
     CHANNELS 3 Yrotation Xrotation Zrotation
     End Site
     {
      OFFSET 0.000000 -1.423100 5.872300
     }
    }
   }
  }
 }
}
MOTION
Frames: 5
Frame Time: 0.008333
-18.078674 62.055251 12.154402 174.190989 -51.240065 -0.544108 3.784752 26.854320 0.957920 0.555606 4.590410 0.134654 0.887733 7.275151 0.234672 2.916028 21.828578 1.111285 1.882690 12.965593 0.180081 3.466515 -11.688644 -0.411811 6.299691 4.753161 4.003922 -11.630103 -6.144400 -16.010652 -55.829545 -34.208624 114.478961 -5.828045 -1.939051 -0.812950 -8.144700 2.394084 0.120254 6.746621 -3.021485 19.663955 71.539099 -43.197882 -114.253996 17.835533 -6.409367 -6.144274 2.440384 -16.018080 -4.635290 -2.471501 61.022720 -5.656697 2.210574 -6.526618 10.677284 0.219342 -0.488284 0.091725 -1.430227 -12.908108 5.184722 21.493535 77.594662 21.502535 0.755094 -12.195362 -2.211639 0.184466 0.543359 0.085581
-18.076515 62.056090 12.155675 174.173864 -51.236981 -0.543625 3.832931 26.843554 0.995424 0.560334 4.586579 0.136804 0.895187 7.269214 0.238209 2.961500 21.813728 1.134748 1.800320 12.870437 0.083251 3.382628 -11.875346 -0.574242 6.137016 4.867428 3.931839 -11.844285 -6.132887 -16.414849 -55.183729 -33.673326 114.264127 -5.699163 -1.595562 0.624420 -8.165557 2.458495 0.140141 6.970674 -3.179280 20.317642 70.702359 -42.533793 -113.997125 18.013335 -6.484943 -7.302892 2.442155 -16.022293 -4.625238 -2.449770 61.022014 -5.635178 2.223569 -6.544425 10.680893 0.200576 -0.475582 0.082939 -1.419952 -12.906833 5.193716 21.511541 77.584975 21.525599 0.770161 -12.179797 -2.206161 0.163455 0.532025 0.073233
-18.078153 62.057276 12.156819 174.171744 -51.238031 -0.533450 3.859219 26.837362 1.011658 0.565179 4.583364 0.138942 0.948542 7.246585 0.260112 2.941926 21.822280 1.138612 1.732951 12.772531 -0.013681 3.296564 -12.055949 -0.733597 5.987079 4.977458 3.847846 -12.013055 -6.125408 -16.847650 -54.617975 -33.195010 114.075161 -5.546745 -1.215988 2.043080 -8.083314 2.552206 0.183694 7.044442 -3.416028 21.012370 69.837385 -41.864671 -113.710700 18.189870 -6.574993 -8.548772 2.440828 -16.021600 -4.635328 -2.414637 61.023513 -5.605567 2.213474 -6.545516 10.674894 0.200281 -0.475777 0.087279 -1.418678 -12.903837 5.180993 21.522425 77.578197 21.536659 0.772530 -12.174242 -2.207434 0.161085 0.530469 0.072370
-18.079180 62.058234 12.158640 174.165507 -51.239131 -0.525400 3.893316 26.828084 1.036976 0.610843 4.564484 0.159771 0.918755 7.255510 0.249102 2.968920 21.814156 1.152787 1.664153 12.680451 -0.108065 3.206700 -12.225756 -0.887478 5.873116 5.045829 3.809764 -12.181146 -6.091475 -17.364236 -54.144941 -32.798144 113.931424 -5.411634 -0.795604 3.428371 -8.007174 2.635815 0.226890 7.053797 -3.681976 21.765137 68.997287 -41.212513 -113.400625 18.335954 -6.631770 -9.863553 2.437868 -16.021663 -4.639394 -2.397877 61.021475 -5.592972 2.211284 -6.540231 10.672692 0.203505 -0.478465 0.086972 -1.415341 -12.901025 5.171098 21.535626 77.572148 21.549085 0.797708 -12.169785 -2.212891 0.158108 0.531211 0.073090
-18.080663 62.058781 12.161034 174.158758 -51.239187 -0.515870 3.933948 26.815927 1.067078 0.595405 4.567933 0.151147 0.949102 7.237875 0.258007 2.955617 21.825033 1.156401 1.633256 12.578412 -0.206292 3.113873 -12.378098 -1.035973 5.770815 5.124995 3.720120 -12.301915 -6.080719 -17.860194 -53.735626 -32.487471 113.818318 -5.316099 -0.389745 4.781484 -7.923103 2.680100 0.260429 7.034380 -3.959453 22.570916 68.216494 -40.604074 -113.067216 18.424267 -6.617298 -11.218285 2.436389 -16.023089 -4.646844 -2.393020 61.018384 -5.586494 2.213677 -6.534131 10.667105 0.197779 -0.480393 0.086860 -1.412563 -12.899043 5.161125 21.538240 77.567102 21.553517 0.800977 -12.168863 -2.211896 0.151791 0.533261 0.069042
